<?xml version="1.0" encoding="utf-8"?>
<!-- Generator: Adobe Illustrator 19.1.0, SVG Export Plug-In . SVG Version: 6.00 Build 0)  -->
<svg version="1.1" id="圖層_1" xmlns="http://www.w3.org/2000/svg" xmlns:xlink="http://www.w3.org/1999/xlink" x="0px" y="0px"
	 viewBox="0 0 145 100" style="enable-background:new 0 0 145 100;" xml:space="preserve">
<style type="text/css">
	.st0{fill:#00BCB4;stroke:#3E3A39;stroke-width:8.7292;stroke-linejoin:round;stroke-miterlimit:10;}
	.st1{fill:none;stroke:#3E3A39;stroke-width:8.7292;stroke-linejoin:round;stroke-miterlimit:10;}
	.st2{fill:#FFFFFF;}
</style>
<g>
	<g>
		<path class="st0" d="M39.9,50l85.3,36.6c18.6-20.2,18.6-53,0-73.2L39.9,50z"/>
		<path class="st1" d="M40,50L10.6,37.4c-6.4,7-6.4,18.3,0,25.2L40,50z"/>
	</g>
</g>
<g>
	<g>
		<path class="st2" d="M75.9,54.3l-0.6-1.7h-3.5l-0.6,1.7h-2l3.6-9.8h1.5l3.6,9.8H75.9z M73.6,47.3l-1.2,3.6h2.4L73.6,47.3z"/>
		<path class="st2" d="M86.6,54.3H85l-1.8-6l-1.8,6h-1.6l-2.6-9.8h2l1.5,6.2l1.8-6.2h1.4l1.8,6.2l1.5-6.2h2L86.6,54.3z"/>
		<path class="st2" d="M89.9,54.3v-9.8h6.5v1.7h-4.6v2.3h3.9v1.7h-3.9v2.4h4.6v1.7H89.9z"/>
		<path class="st2" d="M100.4,54.4c-1.5,0-2.6-0.3-3.6-1.3l1.2-1.2c0.6,0.6,1.5,0.8,2.4,0.8c1.1,0,1.7-0.4,1.7-1.2
			c0-0.3-0.1-0.6-0.3-0.8c-0.2-0.2-0.4-0.3-0.9-0.3l-1.2-0.2c-0.8-0.1-1.5-0.4-1.9-0.8c-0.5-0.5-0.7-1.1-0.7-1.9c0-1.8,1.3-3,3.4-3
			c1.4,0,2.3,0.3,3.2,1.1l-1.2,1.2c-0.6-0.6-1.4-0.7-2-0.7c-1,0-1.5,0.6-1.5,1.2c0,0.2,0.1,0.5,0.3,0.7c0.2,0.2,0.5,0.3,0.9,0.4
			l1.2,0.2c0.9,0.1,1.5,0.4,1.9,0.8c0.5,0.5,0.8,1.2,0.8,2.1C104.1,53.3,102.5,54.4,100.4,54.4z"/>
		<path class="st2" d="M111.3,53.3c-0.7,0.7-1.5,1.1-2.7,1.1c-1.1,0-2-0.4-2.7-1.1c-1-1-1-2.2-1-3.9c0-1.7,0-2.9,1-3.9
			c0.7-0.7,1.5-1.1,2.7-1.1c1.1,0,2,0.4,2.7,1.1c1,1,1,2.2,1,3.9C112.3,51.1,112.3,52.3,111.3,53.3z M109.9,46.6
			c-0.3-0.3-0.7-0.5-1.2-0.5s-1,0.2-1.2,0.5c-0.4,0.4-0.5,0.9-0.5,2.8c0,1.9,0.1,2.3,0.5,2.8c0.3,0.3,0.7,0.5,1.2,0.5s1-0.2,1.2-0.5
			c0.4-0.4,0.5-0.9,0.5-2.8C110.3,47.5,110.2,47,109.9,46.6z"/>
		<path class="st2" d="M120.7,54.3v-5.7l-1.9,3.7h-1.3l-1.9-3.7v5.7h-1.9v-9.8h1.9l2.6,5.3l2.6-5.3h1.9v9.8H120.7z"/>
		<path class="st2" d="M124.3,54.3v-9.8h6.5v1.7h-4.6v2.3h3.9v1.7h-3.9v2.4h4.6v1.7H124.3z"/>
	</g>
</g>
</svg>
